<?xml version="1.0" standalone="no"?>
<!DOCTYPE svg PUBLIC "-//W3C//DTD SVG 20010904//EN"
 "http://www.w3.org/TR/2001/REC-SVG-20010904/DTD/svg10.dtd">
<svg version="1.0" xmlns="http://www.w3.org/2000/svg"
 width="700.000000pt" height="700.000000pt" viewBox="0 0 700.000000 700.000000"
 preserveAspectRatio="xMidYMid meet">
<metadata>
Created by potrace 1.14, written by Peter Selinger 2001-2017
</metadata>
<g transform="translate(0.000000,700.000000) scale(0.100000,-0.100000)"
fill="#000000" stroke="none">
<path d="M2578 5099 c-268 -23 -584 -123 -846 -266 -231 -125 -465 -315 -568
-459 -100 -140 -148 -313 -113 -412 27 -78 71 -36 95 91 26 133 95 247 249
406 257 267 574 448 916 525 512 115 1004 -16 1137 -302 35 -76 37 -190 3
-271 -105 -256 -422 -475 -964 -666 -73 -26 -78 -27 -91 -10 -10 14 -10 30 0
84 34 182 46 335 41 515 -7 260 -46 385 -147 480 -44 41 -54 46 -96 46 -44 0
-51 -4 -101 -53 -61 -62 -70 -88 -17 -52 88 60 155 6 204 -165 31 -108 38
-346 16 -546 -21 -185 -59 -384 -76 -394 -7 -4 -9 -16 -6 -27 7 -23 -39 -226
-84 -365 -71 -222 -219 -539 -345 -737 -276 -435 -511 -555 -694 -355 -84 91
-164 287 -192 468 -7 42 -9 137 -6 231 4 136 9 178 36 280 38 148 115 307 205
425 35 47 63 87 61 89 -9 8 -78 -53 -120 -106 -58 -74 -157 -243 -190 -323
-42 -104 -84 -283 -95 -403 -16 -186 13 -353 86 -500 154 -307 415 -385 688
-207 193 126 404 393 521 658 76 174 177 477 236 709 18 71 38 134 45 142 11
13 16 9 30 -25 224 -537 395 -827 610 -1034 154 -148 270 -203 434 -204 82 -1
102 3 151 25 118 56 190 172 197 319 5 105 -13 184 -67 295 -39 79 -90 141
-110 134 -6 -2 3 -27 22 -59 74 -124 101 -228 95 -369 -6 -162 -63 -241 -173
-241 -187 0 -448 221 -757 640 -140 190 -366 536 -356 545 2 1 56 21 121 44
520 181 880 422 1005 672 96 193 67 356 -90 504 -184 174 -521 258 -900 224z"/>
<path d="M4743 4061 c-49 -48 -63 -136 -30 -178 28 -36 100 7 136 80 26 54 26
82 1 107 -29 29 -73 26 -107 -9z"/>
<path d="M5306 4059 c-66 -16 -177 -81 -243 -142 -121 -114 -183 -242 -183
-381 0 -85 10 -127 56 -226 l35 -75 -55 -102 c-135 -253 -302 -411 -380 -359
-38 24 -49 82 -43 226 6 155 25 218 143 456 72 147 84 179 84 223 0 52 -23 91
-54 91 -41 0 -115 -102 -160 -223 -27 -73 -96 -337 -96 -369 0 -47 -127 -229
-198 -284 -180 -137 -311 -37 -337 256 -11 120 23 357 65 456 27 63 90 124
128 124 47 0 76 -42 69 -102 -10 -81 -53 -155 -144 -245 -83 -82 -97 -103 -68
-103 54 0 172 107 237 215 80 132 87 248 19 316 -132 132 -339 -26 -393 -301
-17 -81 -13 -340 6 -434 29 -147 95 -255 182 -297 56 -27 138 -23 202 10 48
25 165 131 189 172 23 39 33 36 33 -8 0 -58 30 -151 60 -183 14 -15 46 -34 71
-40 135 -37 294 87 414 322 30 60 55 115 55 123 0 20 19 19 26 0 4 -8 47 -48
98 -89 50 -41 103 -87 118 -103 l28 -29 -60 -74 c-80 -100 -92 -169 -35 -206
41 -27 88 -11 151 50 51 50 54 55 54 103 0 37 -6 60 -26 88 l-25 38 65 66 c64
64 80 91 54 91 -17 0 -89 -58 -123 -98 l-27 -32 -94 87 c-193 177 -245 310
-195 505 48 188 178 351 332 417 114 49 177 25 194 -75 7 -43 15 -60 27 -62
38 -7 51 92 19 144 -36 60 -165 89 -275 63z m4 -1190 c0 -70 -52 -145 -75
-108 -17 27 44 167 67 153 4 -3 8 -23 8 -45z"/>
<path d="M5815 3836 c-167 -79 -249 -327 -216 -654 22 -211 84 -342 191 -400
152 -81 366 71 495 352 37 79 45 126 21 126 -23 0 -43 -25 -91 -118 -83 -160
-175 -261 -270 -297 -64 -25 -110 -14 -161 40 -47 48 -68 101 -85 215 -19 124
7 365 53 487 27 72 93 143 135 143 74 0 89 -88 34 -205 -24 -53 -51 -88 -112
-146 -80 -78 -93 -99 -61 -99 57 0 187 127 247 241 80 152 63 280 -42 325 -46
20 -81 17 -138 -10z"/>
</g>
</svg>
