<svg viewBox="0 0 70 70" fill="none" xmlns="http://www.w3.org/2000/svg">
<rect width="70" height="70" rx="35" fill="white"/>
<path d="M14.3986 48.3366C13.6466 48.3366 12.9235 48.057 12.2294 47.4979C11.5353 46.958 10.9375 46.0614 10.4362 44.8081C10.2627 44.3646 10.1373 43.9018 10.0602 43.4198C9.98308 42.9378 9.94452 42.4557 9.94452 41.9737C9.94452 41.1831 10.0313 40.3926 10.2048 39.602C10.3784 38.8115 10.6001 38.0691 10.87 37.375C11.0821 36.8737 11.381 36.3145 11.7666 35.6975C12.1523 35.0612 12.5186 34.5406 12.8657 34.1357C12.9814 34.02 13.126 33.8947 13.2995 33.7597C13.4731 33.6054 13.5887 33.5283 13.6466 33.5283C13.6659 33.5283 13.6755 33.538 13.6755 33.5572C13.6755 33.6151 13.5116 33.8465 13.1838 34.2514C12.3933 35.2155 11.8052 36.3145 11.4196 37.5485C11.0532 38.7633 10.87 39.9684 10.87 41.1638C10.87 41.8773 10.9279 42.5618 11.0436 43.2173C11.1785 43.8729 11.3521 44.4803 11.5642 45.0395C11.9691 46.0614 12.4029 46.7941 12.8657 47.2376C13.3477 47.681 13.849 47.9028 14.3697 47.9028C15.0252 47.9028 15.6904 47.6232 16.3653 47.064C17.0402 46.5049 17.6957 45.7625 18.332 44.837C18.9876 43.9115 19.595 42.9088 20.1541 41.8291C20.7133 40.7493 21.1953 39.6792 21.6003 38.6187C22.0245 37.5389 22.333 36.5748 22.5258 35.7264L22.9596 33.9332C22.8632 33.914 22.815 33.8754 22.815 33.8175C22.815 33.7211 22.8921 33.6247 23.0464 33.5283C23.2778 32.4871 23.4513 31.4652 23.567 30.4625C23.702 29.4599 23.7694 28.5344 23.7694 27.686C23.7694 26.7605 23.6827 25.9506 23.5091 25.2565C23.3549 24.5431 23.0946 24.0032 22.7282 23.6369C22.574 23.4826 22.4004 23.4055 22.2076 23.4055C22.0727 23.4055 21.928 23.444 21.7738 23.5212C21.6388 23.5983 21.5039 23.6947 21.3689 23.8104C21.2339 23.9454 21.2146 23.9164 21.311 23.7236C21.4267 23.5115 21.6099 23.2801 21.8606 23.0295C22.1305 22.7788 22.4197 22.6535 22.7282 22.6535C22.9018 22.6535 23.0753 22.7113 23.2488 22.827C23.8658 23.2512 24.2997 23.8972 24.5503 24.7648C24.8203 25.6325 24.9553 26.6351 24.9553 27.7728C24.9553 28.5247 24.9071 29.3153 24.8106 30.1444C24.7142 30.9735 24.5793 31.8219 24.4057 32.6896C24.4443 32.7281 24.4732 32.7763 24.4925 32.8342C24.5311 32.892 24.5696 32.9499 24.6082 33.0077C26.9413 32.2557 28.8116 31.4555 30.2191 30.6072C31.646 29.7588 32.6776 28.9007 33.3138 28.0331C33.9694 27.1654 34.2972 26.3363 34.2972 25.5457C34.2972 24.7166 33.9887 23.9743 33.3717 23.3187C32.7547 22.6631 31.9063 22.1425 30.8265 21.7569C29.7467 21.3713 28.5031 21.1784 27.0955 21.1784C25.7844 21.1784 24.425 21.3616 23.0175 21.728C21.7449 22.075 20.5301 22.586 19.3732 23.2609C18.2356 23.9164 17.2137 24.6491 16.3075 25.459C15.4205 26.2688 14.6974 27.069 14.1383 27.8595C13.5984 28.6501 13.2899 29.3442 13.2128 29.9419C13.1742 30.3661 13.0971 30.6746 12.9814 30.8675C12.885 31.0603 12.7886 31.1567 12.6921 31.1567C12.4029 31.1567 12.2583 30.8096 12.2583 30.1155C12.2583 30.0191 12.2583 29.9227 12.2583 29.8263C12.2776 29.7298 12.2969 29.6334 12.3162 29.537C12.4318 28.6694 12.8175 27.8017 13.4731 26.934C14.1479 26.0663 14.9963 25.2565 16.0182 24.5045C17.0594 23.7333 18.1971 23.0488 19.4311 22.451C20.6651 21.8533 21.8991 21.3905 23.1331 21.0628C23.9237 20.8507 24.695 20.6964 25.4469 20.6C26.2182 20.5036 26.9606 20.4554 27.674 20.4554C29.2358 20.4554 30.6144 20.6675 31.8099 21.0917C33.0053 21.5159 33.9405 22.0943 34.6154 22.827C35.2902 23.5404 35.6276 24.3599 35.6276 25.2854C35.6276 26.0567 35.3384 26.8762 34.76 27.7438C34.1815 28.6115 33.256 29.4792 31.9834 30.3469C30.7108 31.2145 29.0333 32.0533 26.9509 32.8631C26.5267 33.0174 26.1411 33.1523 25.794 33.268C25.4662 33.3837 25.1674 33.4898 24.8974 33.5862C25.283 34.2803 25.7844 35.0901 26.4014 36.0157C27.0184 36.9412 27.674 37.8763 28.3681 38.8211C29.0815 39.7659 29.7853 40.624 30.4794 41.3952C31.1736 42.1665 31.8002 42.7546 32.3594 43.1595C32.7065 43.4102 33.1114 43.6608 33.5741 43.9115C34.0562 44.1814 34.5189 44.3164 34.9624 44.3164C35.4059 44.3164 35.7433 44.1911 35.9747 43.9404C36.2061 43.709 36.37 43.4102 36.4664 43.0438C36.5628 42.6775 36.611 42.3111 36.611 41.9448C36.611 40.6914 36.2447 39.5345 35.5119 38.4741C35.4541 38.3777 35.4252 38.3198 35.4252 38.3005C35.4252 38.2427 35.4541 38.2138 35.5119 38.2138C35.6276 38.2138 35.7433 38.2909 35.859 38.4451C36.2447 38.9079 36.5532 39.4478 36.7845 40.0648C37.0159 40.6818 37.1316 41.2988 37.1316 41.9158C37.1316 42.8606 36.852 43.6512 36.2929 44.2875C35.753 44.943 35.0106 45.2708 34.0658 45.2708C33.0825 45.2708 32.1666 45.0009 31.3182 44.461C30.4891 43.9211 29.7178 43.2077 29.0044 42.3207C28.291 41.4338 27.645 40.4793 27.0666 39.4574C26.4882 38.4162 25.9772 37.3943 25.5337 36.3916C25.0902 35.389 24.7046 34.502 24.3768 33.7308L24.1744 33.7886C23.8658 35.1191 23.5091 36.4109 23.1042 37.6642C22.7186 38.9175 22.3137 40.0552 21.8895 41.0771C21.3689 42.3497 20.694 43.5355 19.8649 44.6345C19.0551 45.7529 18.1681 46.6495 17.204 47.3243C16.2593 47.9992 15.3241 48.3366 14.3986 48.3366ZM39.5414 41.6844C38.8473 41.6844 38.2399 41.2795 37.7193 40.4697C37.218 39.6406 36.9673 38.3391 36.9673 36.5652C36.9673 35.4083 37.1119 34.4828 37.4011 33.7886C37.6904 33.0752 38.0471 32.5546 38.4713 32.2268C38.8955 31.899 39.3004 31.7351 39.686 31.7351C40.0717 31.7351 40.3994 31.8701 40.6694 32.14C40.9393 32.3907 41.0743 32.7571 41.0743 33.2391C41.0743 33.7019 40.9393 34.1935 40.6694 34.7141C40.3994 35.2155 40.0717 35.6782 39.686 36.1024C39.3197 36.5073 38.9533 36.7773 38.587 36.9122C38.5098 36.9508 38.4134 36.9701 38.2977 36.9701C38.2206 36.9701 38.1821 36.9412 38.1821 36.8833C38.1821 36.7291 38.3363 36.5555 38.6448 36.3627C39.0304 36.0928 39.3968 35.6879 39.7439 35.148C40.0909 34.5888 40.2645 34.0971 40.2645 33.6729C40.2645 33.4223 40.2066 33.2295 40.0909 33.0945C39.9752 32.9402 39.8403 32.8631 39.686 32.8631C39.3968 32.8631 39.0786 33.0945 38.7316 33.5572C38.4038 34.0007 38.1628 34.772 38.0085 35.871C37.97 36.1795 37.9314 36.4784 37.8928 36.7676C37.8735 37.0376 37.8639 37.3075 37.8639 37.5775C37.8639 38.6572 38.0278 39.5056 38.3556 40.1226C38.6834 40.7204 39.1172 41.0192 39.6571 41.0192C40.1199 41.0192 40.6405 40.7493 41.2189 40.2094C41.7974 39.6502 42.3662 38.7826 42.9253 37.6064C43.0603 37.2979 43.2146 37.1436 43.3881 37.1436C43.5038 37.1436 43.5616 37.2208 43.5616 37.375C43.5616 37.51 43.5231 37.6546 43.4459 37.8088C42.9446 39.0429 42.3372 39.9973 41.6238 40.6722C40.9104 41.347 40.2163 41.6844 39.5414 41.6844ZM45.7379 31.6484C45.5643 31.6484 45.439 31.5616 45.3619 31.3881C45.304 31.1952 45.2751 31.0603 45.2751 30.9831C45.2751 30.6746 45.3619 30.3854 45.5354 30.1155C45.7282 29.8263 45.9403 29.672 46.1717 29.6527H46.2585C46.4899 29.6527 46.6441 29.7106 46.7212 29.8263C46.8176 29.9227 46.8658 30.048 46.8658 30.2022C46.8658 30.4915 46.7405 30.8096 46.4899 31.1567C46.2392 31.4845 45.9885 31.6484 45.7379 31.6484ZM44.2628 42.0026C43.6073 42.0026 43.1638 41.7519 42.9324 41.2506C42.701 40.7493 42.5853 40.1708 42.5853 39.5153C42.5853 38.8597 42.6528 38.1752 42.7878 37.4618C42.942 36.7291 43.1059 36.0639 43.2795 35.4661C43.4723 34.8684 43.6169 34.4442 43.7133 34.1935C43.9254 33.7501 44.1375 33.3741 44.3496 33.0656C44.5617 32.7378 44.7931 32.5739 45.0437 32.5739C45.2173 32.5739 45.3426 32.6414 45.4197 32.7763C45.5161 32.892 45.5643 33.0463 45.5643 33.2391C45.5643 33.6247 45.4583 34.02 45.2462 34.4249C45.0341 34.8106 44.8413 35.1769 44.6677 35.524C44.2821 36.3145 43.9736 37.0183 43.7422 37.6353C43.5301 38.2523 43.4241 39.0236 43.4241 39.9491C43.4241 40.5468 43.4819 40.9807 43.5976 41.2506C43.7326 41.5206 43.9158 41.6555 44.1471 41.6555C44.4556 41.6555 44.8124 41.482 45.2173 41.1349C45.6222 40.7686 46.0367 40.2865 46.4609 39.6888C46.8851 39.0911 47.2611 38.4451 47.5889 37.751C47.801 37.3075 47.9649 37.0858 48.0806 37.0858C48.1577 37.0858 48.1963 37.1629 48.1963 37.3172C48.1963 37.5293 48.1095 37.8378 47.936 38.2427C47.7817 38.6283 47.5889 39.0236 47.3575 39.4285C47.1454 39.8334 46.943 40.1516 46.7502 40.3829C46.4224 40.8071 46.0464 41.1831 45.6222 41.5109C45.198 41.8387 44.7449 42.0026 44.2628 42.0026ZM49.9912 42.5521C49.7406 42.5521 49.5574 42.4654 49.4417 42.2918C49.3453 42.1376 49.2971 41.9833 49.2971 41.8291C49.2971 41.5206 49.4321 41.2024 49.702 40.8746C49.7984 40.7589 49.9334 40.6047 50.1069 40.4119C50.2805 40.1998 50.4058 40.0359 50.4829 39.9202C50.2323 39.5731 49.8948 39.255 49.4706 38.9657C49.0464 38.6765 48.6319 38.3102 48.227 37.8667C47.8606 37.4618 47.5521 36.9701 47.3015 36.3916C47.0508 35.7939 46.9255 35.2251 46.9255 34.6852C46.9255 34.0489 47.0701 33.4416 47.3593 32.8631C47.6485 32.2847 48.0052 31.7833 48.4294 31.3591C48.8922 30.8964 49.4032 30.53 49.9623 30.2601C50.5215 29.9709 51.0999 29.8263 51.6977 29.8263C52.1026 29.8263 52.4979 29.9227 52.8835 30.1155C53.2691 30.3083 53.4619 30.6264 53.4619 31.0699C53.4619 31.5905 53.3462 31.8508 53.1149 31.8508C53.0185 31.8508 52.951 31.7544 52.9124 31.5616C52.8931 31.4652 52.8835 31.3688 52.8835 31.2724C52.8835 31.1567 52.8835 31.0796 52.8835 31.041C52.8835 30.8482 52.7967 30.6843 52.6232 30.5493C52.4496 30.3951 52.2568 30.3179 52.0447 30.3179C51.6013 30.3179 51.1096 30.4915 50.5697 30.8385C50.0298 31.1856 49.5767 31.5905 49.2103 32.0533C48.844 32.5353 48.5451 33.0848 48.3137 33.7019C48.0824 34.2996 47.9667 34.878 47.9667 35.4372C47.9667 36.1313 48.1209 36.7291 48.4294 37.2304C48.7379 37.7317 49.1043 38.1752 49.5285 38.5608C49.972 38.9465 50.3672 39.3225 50.7143 39.6888C50.8878 39.4767 51.071 39.2742 51.2638 39.0814C51.4759 38.8886 51.6687 38.7344 51.8423 38.6187C51.9965 38.5223 52.1026 38.4741 52.1604 38.4741C52.2183 38.4741 52.2472 38.503 52.2472 38.5608C52.2472 38.6572 52.1604 38.7729 51.9869 38.9079C51.9483 38.9465 51.8326 39.0621 51.6398 39.255C51.4663 39.4285 51.2542 39.6502 51.0035 39.9202C51.1578 40.0937 51.2831 40.2769 51.3795 40.4697C51.4759 40.6625 51.5241 40.8746 51.5241 41.106C51.5241 41.4145 51.3506 41.7327 51.0035 42.0604C50.6565 42.3882 50.319 42.5521 49.9912 42.5521ZM50.3094 41.7712C50.4444 41.7712 50.5697 41.6459 50.6854 41.3952C50.8203 41.1638 50.8878 40.9325 50.8878 40.7011C50.8878 40.5854 50.8686 40.4793 50.83 40.3829C50.7914 40.2865 50.7625 40.2287 50.7432 40.2094C50.589 40.4022 50.4444 40.6143 50.3094 40.8457C50.1937 41.0578 50.1359 41.2506 50.1359 41.4241C50.1359 41.6555 50.1937 41.7712 50.3094 41.7712ZM55.9798 41.6844C55.2857 41.6844 54.6783 41.2795 54.1577 40.4697C53.6564 39.6406 53.4057 38.3391 53.4057 36.5652C53.4057 35.4083 53.5503 34.4828 53.8395 33.7886C54.1288 33.0752 54.4855 32.5546 54.9097 32.2268C55.3339 31.899 55.7388 31.7351 56.1244 31.7351C56.51 31.7351 56.8378 31.8701 57.1078 32.14C57.3777 32.3907 57.5127 32.7571 57.5127 33.2391C57.5127 33.7019 57.3777 34.1935 57.1078 34.7141C56.8378 35.2155 56.51 35.6782 56.1244 36.1024C55.7581 36.5073 55.3917 36.7773 55.0253 36.9122C54.9482 36.9508 54.8518 36.9701 54.7361 36.9701C54.659 36.9701 54.6204 36.9412 54.6204 36.8833C54.6204 36.7291 54.7747 36.5555 55.0832 36.3627C55.4688 36.0928 55.8352 35.6879 56.1822 35.148C56.5293 34.5888 56.7029 34.0971 56.7029 33.6729C56.7029 33.4223 56.645 33.2295 56.5293 33.0945C56.4136 32.9402 56.2787 32.8631 56.1244 32.8631C55.8352 32.8631 55.517 33.0945 55.17 33.5572C54.8422 34.0007 54.6012 34.772 54.4469 35.871C54.4083 36.1795 54.3698 36.4784 54.3312 36.7676C54.3119 37.0376 54.3023 37.3075 54.3023 37.5775C54.3023 38.6572 54.4662 39.5056 54.794 40.1226C55.1218 40.7204 55.5556 41.0192 56.0955 41.0192C56.5582 41.0192 57.0788 40.7493 57.6573 40.2094C58.2357 39.6502 58.8045 38.7826 59.3637 37.6064C59.4987 37.2979 59.6529 37.1436 59.8265 37.1436C59.9422 37.1436 60 37.2208 60 37.375C60 37.51 59.9614 37.6546 59.8843 37.8088C59.383 39.0429 58.7756 39.9973 58.0622 40.6722C57.3488 41.347 56.6546 41.6844 55.9798 41.6844Z" fill="black"/>
</svg>
